<svg xmlns="http://www.w3.org/2000/svg" xmlns:xlink="http://www.w3.org/1999/xlink" width="62px" height="62px"><path fill-rule="evenodd"  opacity="0.729" fill="rgb(135, 135, 135)" d="M61.647,43.796 C61.499,47.046 60.983,49.266 60.228,51.208 C59.448,53.216 58.404,54.918 56.707,56.616 C55.009,58.313 53.306,59.357 51.298,60.137 C49.356,60.892 47.137,61.409 43.887,61.557 C40.630,61.706 39.590,61.740 31.298,61.740 C23.006,61.740 21.966,61.706 18.710,61.557 C15.460,61.409 13.240,60.892 11.298,60.137 C9.290,59.357 7.588,58.313 5.890,56.616 C4.193,54.918 3.148,53.216 2.368,51.208 C1.614,49.266 1.098,47.046 0.949,43.796 C0.800,40.540 0.765,39.501 0.765,31.207 C0.765,22.916 0.800,21.876 0.949,18.619 C1.098,15.370 1.614,13.150 2.368,11.208 C3.148,9.200 4.193,7.497 5.890,5.799 C7.588,4.102 9.290,3.058 11.298,2.278 C13.240,1.524 15.460,1.006 18.710,0.859 C21.966,0.710 23.006,0.675 31.298,0.675 C39.590,0.675 40.630,0.710 43.887,0.859 C47.137,1.006 49.356,1.524 51.298,2.278 C53.306,3.058 55.009,4.102 56.707,5.799 C58.404,7.497 59.448,9.200 60.228,11.208 C60.983,13.150 61.499,15.370 61.647,18.619 C61.796,21.876 61.831,22.916 61.831,31.207 C61.831,39.501 61.796,40.540 61.647,43.796 ZM56.152,18.869 C56.016,15.893 55.518,14.276 55.100,13.200 C54.546,11.775 53.885,10.758 52.816,9.690 C51.748,8.621 50.731,7.959 49.306,7.406 C48.230,6.987 46.613,6.490 43.636,6.354 C40.417,6.208 39.451,6.177 31.298,6.177 C23.146,6.177 22.180,6.208 18.961,6.354 C15.983,6.490 14.367,6.987 13.291,7.406 C11.866,7.959 10.848,8.621 9.780,9.690 C8.712,10.758 8.050,11.775 7.496,13.200 C7.078,14.276 6.581,15.893 6.445,18.869 C6.298,22.089 6.267,23.054 6.267,31.207 C6.267,39.360 6.298,40.325 6.445,43.545 C6.581,46.522 7.078,48.140 7.496,49.215 C8.050,50.640 8.712,51.657 9.780,52.725 C10.848,53.794 11.866,54.456 13.291,55.010 C14.367,55.428 15.983,55.926 18.961,56.062 C22.180,56.209 23.145,56.239 31.298,56.239 C39.451,56.239 40.417,56.209 43.636,56.062 C46.613,55.926 48.230,55.428 49.306,55.010 C50.731,54.456 51.748,53.794 52.817,52.725 C53.885,51.657 54.546,50.640 55.100,49.215 C55.518,48.140 56.016,46.522 56.152,43.545 C56.299,40.325 56.330,39.360 56.330,31.207 C56.330,23.054 56.299,22.089 56.152,18.869 ZM47.597,18.573 C45.573,18.573 43.933,16.932 43.933,14.909 C43.933,12.886 45.573,11.245 47.597,11.245 C49.620,11.245 51.261,12.886 51.261,14.909 C51.261,16.932 49.620,18.573 47.597,18.573 ZM31.298,46.886 C22.639,46.886 15.619,39.867 15.619,31.207 C15.619,22.548 22.639,15.529 31.298,15.529 C39.958,15.529 46.977,22.548 46.977,31.207 C46.977,39.867 39.958,46.886 31.298,46.886 ZM31.298,21.029 C25.677,21.029 21.121,25.586 21.121,31.207 C21.121,36.828 25.677,41.386 31.298,41.386 C36.919,41.386 41.476,36.828 41.476,31.207 C41.476,25.586 36.919,21.029 31.298,21.029 Z"/></svg>