<svg  xmlns="http://www.w3.org/2000/svg" xmlns:xlink="http://www.w3.org/1999/xlink" width="63px" height="63px"><path fill-rule="evenodd"  opacity="0.729" fill="rgb(135, 135, 135)"  d="M41.373,0.336 C24.029,0.336 39.721,0.336 22.377,0.336 C5.034,0.336 0.904,4.466 0.904,21.811 C0.904,31.495 0.904,23.462 0.904,40.805 C0.904,58.149 5.034,62.279 22.377,62.279 C39.721,62.279 24.029,62.279 41.373,62.279 C58.717,62.279 62.846,58.149 62.846,40.805 C62.846,23.462 62.846,39.153 62.846,21.811 C62.846,4.466 58.717,0.336 41.373,0.336 ZM50.850,43.567 L46.333,43.567 C44.611,43.567 44.106,42.193 41.044,39.130 C38.364,36.545 37.215,36.213 36.545,36.213 C35.636,36.213 35.365,36.470 35.365,37.759 L35.365,41.810 C35.365,42.921 35.009,43.567 32.138,43.567 C27.353,43.567 22.094,40.661 18.362,35.303 C12.764,27.455 11.232,21.522 11.232,20.326 C11.232,19.655 11.491,19.047 12.781,19.047 L17.298,19.047 C18.452,19.047 18.886,19.553 19.319,20.804 C21.529,27.239 25.253,32.863 26.784,32.863 C27.358,32.863 27.622,32.598 27.622,31.139 L27.622,24.489 C27.454,21.427 25.827,21.175 25.827,20.086 C25.827,19.582 26.259,19.047 26.976,19.047 L34.074,19.047 C35.031,19.047 35.364,19.560 35.364,20.708 L35.364,29.655 C35.364,30.613 35.780,30.949 36.067,30.949 C36.641,30.949 37.120,30.613 38.173,29.560 C41.427,25.924 43.723,20.326 43.723,20.326 C44.010,19.655 44.540,19.047 45.688,19.047 L50.205,19.047 C51.571,19.047 51.857,19.751 51.571,20.708 C50.997,23.340 45.493,31.091 45.493,31.091 C45.015,31.857 44.824,32.240 45.493,33.101 C45.972,33.770 47.551,35.112 48.604,36.355 C50.544,38.538 52.006,40.379 52.413,41.648 C52.786,42.921 52.141,43.567 50.850,43.567 Z"/></svg>